name processed_emg_signals
nRows=58
nColumns=7
 
endheader
time	RGLTMED	RRF	RADDLONG	RST	RTA	RGM
0.485	0.0167854210362309	0.024101059852177	0.0558850291732182	0.0194602125035992	0.2072161595626213	0.0472355455411561
0.486	0.0167061654157409	0.0240885286004145	0.056547747953134	0.0197168859386079	0.2103546999993889	0.0474759657174252
0.487	0.0166287099316815	0.0240768834942799	0.0572109874941427	0.019978090882601	0.2134683127815154	0.0476961126325974
0.488	0.0165530561255183	0.0240661294037301	0.0578739585466663	0.0202435418672264	0.2165557838731722	0.0478961721227284
0.489	0.0164792049905813	0.0240562707610071	0.0585358666941153	0.0205129416805956	0.2196159166455476	0.0480763558424663
0.49	0.01640715709119	0.0240473115522391	0.0591959135084904	0.02078598147749	0.2226475317186418	0.0482368999783548
0.491	0.0163369126826874	0.0240392553075758	0.0598532977137526	0.0210623409054677	0.2256494668089763	0.0483780639678099
0.492	0.0162684718321096	0.0240321050899392	0.060507216355301	0.0213416882469135	0.2286205765847284	0.0485001292255993
0.493	0.0162018345392817	0.0240258634824784	0.0611568659738088	0.0216236805771075	0.2315597325294607	0.04860339787959
0.494	0.0161370008580429	0.0240205325747712	0.0618014437815789	0.0219079639383974	0.2344658228153477	0.0486881915173671
0.495	0.0160739710173249	0.0240161139477696	0.062440148839506	0.0221941735305798	0.2373377521867121	0.0487548499452761
0.496	0.016012745541725	0.0240126086574558	0.0630721832326283	0.0224819339175966	0.2401744418546414	0.0488037299613307
0.497	0.0159533253712285	0.0240100172171562	0.0636967532421331	0.0227708592506549	0.242974829403368	0.0488352041434199
0.498	0.015895711979635	0.0240083395784536	0.0643130705115562	0.0230605535079259	0.2457378687092853	0.0488496596540996
0.499	0.0158399074912973	0.0240075751105968	0.0649203532047923	0.0233506107510134	0.2484625298736668	0.0488474970632083
0.5	0.0157859147956871	0.0240077225783724	0.06551782715345	0.0236406153984115	0.2511477991705671	0.0488291291894643
0.501	0.0157337376593377	0.0240087801183545	0.0661047269911171	0.0239301425162299	0.2537926790114493	0.0487949799621202
0.502	0.0156833808346814	0.0240107452136001	0.0666802972721074	0.0242187581264399	0.2563961879279528	0.0487454833037402
0.503	0.0156348501653017	0.0240136146668286	0.0672437935724031	0.0245060195328951	0.2589573605738617	0.0486810820350672
0.504	0.0155881526871349	0.0240173845722008	0.0677944835706134	0.0247914756653963	0.2614752477469119	0.0486022268028898
0.505	0.0155432967252034	0.0240220502858547	0.0683316481070459	0.0250746674420916	0.2639489164307623	0.0485093750317232
0.506	0.0155002919854305	0.0240276063953265	0.0688545822192319	0.02535512815051	0.2663774498573161	0.0484029899000412
0.507	0.0154591496411497	0.0240340466880382	0.0693625961524477	0.0256323838475612	0.2687599475895567	0.0482835393416642
0.508	0.0154198824138948	0.0240413641190003	0.0698550163439584	0.0259059537788029	0.2710955256251273	0.048151495072867
0.509	0.0153825046481179	0.0240495507779048	0.0703311863798522	0.0261753508171846	0.2733833165209497	0.048007331645671
0.51	0.015347032379508	0.02405859785576	0.0707904679233982	0.0264400819214463	0.2756224695390784	0.0478515255278182
0.511	0.0153134833966261	0.0240684956112219	0.0712322416139795	0.0266996486142119	0.2778121508137376	0.0476845542098621
0.512	0.0152818772956157	0.0240792333367797	0.0716559079357787	0.0269535474797786	0.2799515435390864	0.0475068953398295
0.513	0.015252235527782	0.0240907993249631	0.0720608880554502	0.0272012706815278	0.2820398481767448	0.047319025885853
0.514	0.0152245814398813	0.0241031808347828	0.072446624628122	0.0274423064988146	0.2840762826816548	0.0471214213271691
0.515	0.0151989403069665	0.0241163640586291	0.0728125825709989	0.0276761398832357	0.2860600827443101	0.0469145548738235
0.516	0.0151753393577009	0.0241303340899005	0.0731582498037472	0.0279022530341174	0.2879905020471785	0.0466988967154049
0.517	0.0151538077919877	0.024145074891561	0.0734831379547331	0.0281201259931786	0.2898668125330766	0.0464749132990431
0.518	0.0151343767908393	0.0241605692659197	0.0737867830320111	0.0283292372582668	0.2916883046835112	0.0462430666369412
0.519	0.0151170795183126	0.0241767988258804	0.0740687460579404	0.0285290644161648	0.293454287805225	0.0460038136437041
0.52	0.0151019511153516	0.0241937439679979	0.0743286136662473	0.0287190847943861	0.2951640903234221	0.04575760550381
0.521	0.0150890286853721	0.0242113838476087	0.0745659986604246	0.0288987761319131	0.2968170600803594	0.0455048870695697
0.522	0.0150783512713657	0.0242296963563748	0.0747805405324281	0.0290676172687631	0.2984125646381734	0.0452460962899454
0.523	0.0150699598243229	0.0242486581024751	0.0749719059407456	0.0292250888542021	0.2999499915850783	0.0449816636705617
0.524	0.0150638971627408	0.0242682443936749	0.0751397891471722	0.0293706740733814	0.3014287488443372	0.0447120117651349
0.525	0.015060207923003	0.0242884292235073	0.0752839124116869	0.029503859392083	0.3028482649857724	0.0444375546985504
0.526	0.0150589385003983	0.0243091852607342	0.0754040263450054	0.0296241353192282	0.3042079895399704	0.0441586977217267
0.527	0.015060136980649	0.0243304838422949	0.0754999102184556	0.0297309971866554	0.3055073933157851	0.0438758367983861
0.528	0.0150638530618171	0.0243522949698781	0.0755713722310259	0.0298239459456586	0.3067459687222543	0.043589358223829
0.529	0.0150701379665916	0.0243745873102111	0.0756182497335925	0.0299024889796202	0.3079232300967682	0.0432996382757199
0.53	0.0150790443449812	0.0243973281991648	0.0756404094105786	0.0299661409320541	0.3090387140419311	0.0430070428967942
0.531	0.0150906261675472	0.0244204836497095	0.0756377474194521	0.0300144245492846	0.31009197977401	0.0427119274092945
0.532	0.0151049386093318	0.0244440183638539	0.0756101894886377	0.0300468715370058	0.3110826094860567	0.0424146362608353
0.533	0.0151220379247408	0.0244678957486439	0.0755576909745069	0.0300630234298851	0.3120102087284555	0.0421155028013823
0.534	0.0151419813135983	0.0244920779363228	0.0754802368781029	0.0300624324734265	0.3128744068091948	0.0418148490909875
0.535	0.0151648267787017	0.0245165258087309	0.0753778418222663	0.0300446625172651	0.3136748572153581	0.041512985737985
0.536	0.015190632975195	0.0245411990259244	0.0752505499896746	0.0300092899191241	0.3144112380567798	0.0412102117672955
0.537	0.0152194590521965	0.0245660560589997	0.075098435022284	0.0299559044586572	0.3150832525319735	0.0409068145185
0.538	0.0152513644871122	0.0245910542270029	0.0749215998824383	0.0298841102604312	0.3156906294157702	0.0406030695733231
0.539	0.0152864089131947	0.0246161497378186	0.0747201766758196	0.0297935267253097	0.3162331235670898	0.0402992407121158
0.54	0.0153246519408592	0.0246412977328843	0.0744943264362467	0.0296837894694462	0.3167105164542936	0.0399955798988857
0.541	0.015366152973309	0.0246664523356239	0.0742442388722421	0.0295545512700781	0.3171226166945788	0.039692327294404
0.542	0.0154109710170144	0.0246915667034639	0.0739701320752563	0.0294054830172155	0.3174692606028886	0.0393897112968119
